<svg xmlns="http://www.w3.org/2000/svg" width="1464.858" height="1033.508" viewBox="0 0 1464.858 1033.508"><g transform="translate(-1735.672 -19.644)"><path d="M5.814-78.03H25.7a48.965,48.965,0,0,1,15.453,2.193A26.087,26.087,0,0,1,52.173-68.9,29.848,29.848,0,0,1,58.8-56.712,64.133,64.133,0,0,1,61-38.76q0,19.176-8.772,28.968T25.6,0H5.814ZM25.5-12.954a20.34,20.34,0,0,0,7.6-1.326,12.759,12.759,0,0,0,5.559-4.335,21.524,21.524,0,0,0,3.417-7.956A53.788,53.788,0,0,0,43.248-38.76a57.561,57.561,0,0,0-1.173-12.648,22.694,22.694,0,0,0-3.366-8.16,12.367,12.367,0,0,0-5.457-4.386,19.36,19.36,0,0,0-7.344-1.326H22.542v52.326ZM69.564-38.76q0-20.094,6.63-30.243T97.92-79.152a31.5,31.5,0,0,1,13.26,2.5,20.925,20.925,0,0,1,8.772,7.548,34.468,34.468,0,0,1,4.845,12.6,93.357,93.357,0,0,1,1.479,17.748,89.9,89.9,0,0,1-1.53,17.595,35.126,35.126,0,0,1-4.9,12.648,21.288,21.288,0,0,1-8.772,7.6A30.681,30.681,0,0,1,97.92,1.632a32.056,32.056,0,0,1-13.464-2.5,20.589,20.589,0,0,1-8.721-7.548,34.466,34.466,0,0,1-4.743-12.648A96.8,96.8,0,0,1,69.564-38.76ZM97.92-11.22a9.36,9.36,0,0,0,5.253-1.377,9.174,9.174,0,0,0,3.315-4.59,32.222,32.222,0,0,0,1.683-8.466q.459-5.253.459-13.107a129.746,129.746,0,0,0-.561-13.26,33.087,33.087,0,0,0-1.836-8.517,9.591,9.591,0,0,0-3.315-4.59,8.728,8.728,0,0,0-5-1.377,9.307,9.307,0,0,0-5.3,1.377,9.054,9.054,0,0,0-3.213,4.59,34.066,34.066,0,0,0-1.632,8.517q-.459,5.3-.459,13.26,0,7.854.408,13.107A32.68,32.68,0,0,0,89.3-17.187a9.054,9.054,0,0,0,3.213,4.59A9.508,9.508,0,0,0,97.92-11.22Zm53.958,23.154L156.57-18.36h18.258l-11.22,30.294ZM302.116-64.974H282.124V0H265.4V-64.974H245.4V-78.03h56.712ZM328.942,0H312.214V-78.03h16.728v32.538h20.2V-78.03h16.728V0H349.138V-32.436h-20.2Zm51.816-78.03h48.348v13.056h-31.62V-45.39H427.27v12.954H397.486v19.38h32.538V0H380.758Zm80.478,44.88-22.95-44.88h17.646L469.8-49.776h.51L483.88-78.03h17.034l-22.95,44.574V0H461.236ZM601.282-66.4a10.509,10.509,0,0,0-6.222,1.734,11.542,11.542,0,0,0-3.876,5.2A32.024,32.024,0,0,0,589.2-50.8a114.789,114.789,0,0,0-.561,12.138q0,6.936.51,12.087a29.478,29.478,0,0,0,1.938,8.517,11.4,11.4,0,0,0,3.825,5.049,10.692,10.692,0,0,0,6.273,1.683,10.326,10.326,0,0,0,8.517-3.723q3.009-3.723,3.009-12.087V-29.07H600.16V-41.616h27.948V0h-12.75V-7.446h-.816a16.23,16.23,0,0,1-6.018,6.579,18.266,18.266,0,0,1-9.894,2.5,26.055,26.055,0,0,1-12.342-2.7,22.153,22.153,0,0,1-8.313-7.65,35.047,35.047,0,0,1-4.692-11.934A75.3,75.3,0,0,1,571.8-36.21a92.268,92.268,0,0,1,1.632-18.309,38.415,38.415,0,0,1,5.2-13.464,23.572,23.572,0,0,1,9.231-8.313,30.188,30.188,0,0,1,13.719-2.856,30.519,30.519,0,0,1,11.373,1.938,22.5,22.5,0,0,1,8.058,5.3,22.163,22.163,0,0,1,4.845,7.9,32.11,32.11,0,0,1,1.836,9.639H611.788a15.427,15.427,0,0,0-2.652-8.67Q606.688-66.4,601.282-66.4Zm35.8,27.642q0-20.094,6.63-30.243T665.44-79.152a31.5,31.5,0,0,1,13.26,2.5,20.925,20.925,0,0,1,8.772,7.548,34.468,34.468,0,0,1,4.845,12.6A93.36,93.36,0,0,1,693.8-38.76a89.907,89.907,0,0,1-1.53,17.595,35.127,35.127,0,0,1-4.9,12.648,21.288,21.288,0,0,1-8.772,7.6,30.681,30.681,0,0,1-13.158,2.55,32.056,32.056,0,0,1-13.464-2.5,20.589,20.589,0,0,1-8.721-7.548,34.466,34.466,0,0,1-4.743-12.648A96.8,96.8,0,0,1,637.084-38.76ZM665.44-11.22a9.36,9.36,0,0,0,5.253-1.377,9.174,9.174,0,0,0,3.315-4.59,32.221,32.221,0,0,0,1.683-8.466q.459-5.253.459-13.107a129.758,129.758,0,0,0-.561-13.26,33.084,33.084,0,0,0-1.836-8.517,9.592,9.592,0,0,0-3.315-4.59,8.728,8.728,0,0,0-5-1.377,9.307,9.307,0,0,0-5.3,1.377,9.054,9.054,0,0,0-3.213,4.59,34.066,34.066,0,0,0-1.632,8.517q-.459,5.3-.459,13.26,0,7.854.408,13.107a32.682,32.682,0,0,0,1.581,8.466,9.054,9.054,0,0,0,3.213,4.59A9.508,9.508,0,0,0,665.44-11.22ZM785.9,0H769.174V-78.03H785.9v32.538h20.2V-78.03h16.728V0H806.1V-32.436H785.9Zm51.816-78.03h48.348v13.056h-31.62V-45.39H884.23v12.954H854.446v19.38h32.538V0H837.718ZM924.01-42.738q5.814,0,9.078-2.6t3.264-8.721q0-6.426-3.213-8.772t-8.823-2.346H916.87v22.44Zm-1.122,13.362H916.87V0H900.142V-78.03h24.582a57.962,57.962,0,0,1,8.874.663,30.3,30.3,0,0,1,8.058,2.4,19.956,19.956,0,0,1,8.364,7.293q3.162,4.845,3.162,12.6a26.121,26.121,0,0,1-1.275,8.568,22.258,22.258,0,0,1-3.315,6.324A22.032,22.032,0,0,1,944-35.7a25.22,25.22,0,0,1-5,2.856v.408L955.528,0H937.27Zm45.39-48.654h48.348v13.056h-31.62V-45.39h29.784v12.954H985.006v19.38h32.538V0H968.278Zm79.662,59.67h18.36V0h-18.36Z" transform="translate(3201 974) rotate(180)" fill="#31e087"/><path d="M31.518-65.484q0,.2-.2,1.785t-.561,4.182q-.357,2.6-.867,5.967t-1.224,7.038L25.5-29.58H38.862L35.6-46.614q-.816-3.876-1.275-7.242t-.765-6.018q-.408-3.06-.51-5.61Zm9.894,48.246H23.052L19.278,0H3.366L20.808-78.03H44.472L61.914,0H45.186ZM71.094-78.03H90.27l15.5,40.6q.918,2.448,1.581,4.641t1.173,3.927q.51,1.938,1.02,3.57h.918V-78.03h14.28V0H105.57l-15.5-40.7q-1.938-5.2-2.856-8.568-.51-1.836-.918-3.468h-.918V0H71.094Zm65.28,0h19.89a48.965,48.965,0,0,1,15.453,2.193A26.087,26.087,0,0,1,182.733-68.9a29.848,29.848,0,0,1,6.63,12.189,64.133,64.133,0,0,1,2.193,17.952q0,19.176-8.772,28.968T156.162,0H136.374ZM156.06-12.954a20.34,20.34,0,0,0,7.6-1.326,12.759,12.759,0,0,0,5.559-4.335,21.524,21.524,0,0,0,3.417-7.956,53.788,53.788,0,0,0,1.173-12.189,57.561,57.561,0,0,0-1.173-12.648,22.694,22.694,0,0,0-3.366-8.16,12.367,12.367,0,0,0-5.457-4.386,19.36,19.36,0,0,0-7.344-1.326H153.1v52.326ZM268.26,0l-4.794-78.03H277.44L280.4-21.624h.816q.2-2.55.612-5.1.306-2.142.663-4.488t.765-4.08l5.2-24.378h11.118l5.2,24.378q.408,1.836.816,4.182t.714,4.488l.714,5h.714L310.59-78.03h13.464L319.26,0H300.8L296.31-22.236q-.612-2.958-1.122-5.865t-.816-5.253q-.408-2.652-.612-5.1h-.714q-.2,2.346-.612,5-.306,2.346-.816,5.253T290.5-22.338L285.7,0Zm80.682,0H332.214V-78.03h16.728v32.538h20.2V-78.03h16.728V0H369.138V-32.436h-20.2Zm51.816-78.03h48.348v13.056h-31.62V-45.39H447.27v12.954H417.486v19.38h32.538V0H400.758Zm62.016,0H481.95l15.5,40.6q.918,2.448,1.581,4.641t1.173,3.927q.51,1.938,1.02,3.57h.918V-78.03h14.28V0H497.25l-15.5-40.7q-1.938-5.2-2.856-8.568-.51-1.836-.918-3.468h-.918V0h-14.28ZM594.66,0l-4.794-78.03H603.84L606.8-21.624h.816q.2-2.55.612-5.1.306-2.142.663-4.488t.765-4.08l5.2-24.378h11.118l5.2,24.378q.408,1.836.816,4.182t.714,4.488l.714,5h.714L636.99-78.03h13.464L645.66,0H627.2L622.71-22.236q-.612-2.958-1.122-5.865t-.816-5.253q-.408-2.652-.612-5.1h-.714q-.2,2.346-.612,5-.306,2.346-.816,5.253T616.9-22.338L612.1,0Zm67.218-78.03h48.348v13.056h-31.62V-45.39H708.39v12.954H678.606v19.38h32.538V0H661.878Z" transform="translate(3122.5 170.5) rotate(90)" fill="#31e087"/><path d="M73.758-56.814a16.076,16.076,0,0,0-.867-3.876A9.343,9.343,0,0,0,70.953-63.9,9.047,9.047,0,0,0,67.689-66.1a12.468,12.468,0,0,0-4.743-.816,11.186,11.186,0,0,0-7.293,2.448,8.207,8.207,0,0,0-3.009,6.732q0,4.284,2.04,6.426t7.242,3.366L71.31-45.7q10.1,2.448,15.249,7.65T91.71-23.46q0,12.036-7.65,18.564T62.946,1.632q-13.464,0-20.961-6.12t-8.313-17.85H49.89a13.166,13.166,0,0,0,3.57,8.211q3.06,3.111,9.486,3.111,5.814,0,9.078-2.8a9.163,9.163,0,0,0,3.264-7.293q0-4.386-2.4-6.732t-8.313-3.672L55.092-33.66a35.505,35.505,0,0,1-7.344-2.6A20.044,20.044,0,0,1,41.73-40.7,20.506,20.506,0,0,1,37.7-47.226,23.948,23.948,0,0,1,36.222-56a22.948,22.948,0,0,1,1.836-9.231,21.788,21.788,0,0,1,5.253-7.395,24.183,24.183,0,0,1,8.415-4.947A33.86,33.86,0,0,1,63.15-79.356q12.75,0,19.38,5.763t7.344,16.779ZM99.564-38.76q0-20.094,6.63-30.243T127.92-79.152a31.5,31.5,0,0,1,13.26,2.5,20.925,20.925,0,0,1,8.772,7.548,34.468,34.468,0,0,1,4.845,12.6,93.357,93.357,0,0,1,1.479,17.748,89.9,89.9,0,0,1-1.53,17.595,35.126,35.126,0,0,1-4.9,12.648,21.288,21.288,0,0,1-8.772,7.6,30.681,30.681,0,0,1-13.158,2.55,32.056,32.056,0,0,1-13.464-2.5,20.589,20.589,0,0,1-8.721-7.548,34.466,34.466,0,0,1-4.743-12.648A96.8,96.8,0,0,1,99.564-38.76ZM127.92-11.22a9.36,9.36,0,0,0,5.253-1.377,9.174,9.174,0,0,0,3.315-4.59,32.222,32.222,0,0,0,1.683-8.466q.459-5.253.459-13.107a129.748,129.748,0,0,0-.561-13.26,33.086,33.086,0,0,0-1.836-8.517,9.591,9.591,0,0,0-3.315-4.59,8.728,8.728,0,0,0-5-1.377,9.307,9.307,0,0,0-5.3,1.377,9.054,9.054,0,0,0-3.213,4.59,34.066,34.066,0,0,0-1.632,8.517q-.459,5.3-.459,13.26,0,7.854.408,13.107a32.68,32.68,0,0,0,1.581,8.466,9.054,9.054,0,0,0,3.213,4.59A9.508,9.508,0,0,0,127.92-11.22Zm38.454-66.81h17.85l5.916,24.582q.612,2.652,1.122,5.814t.918,6.018q.408,3.366.918,6.732h.816l.816-6.732q.408-2.856.969-6.069t1.173-5.763l5.916-24.582h17.238V0H205.848V-54.57h-.918q-.408,2.958-.816,5.61-.306,2.346-.663,4.794t-.663,4.08L198.81-20.3H187.08L183-40.086a35.282,35.282,0,0,1-.714-4.08q-.306-2.448-.612-4.794-.408-2.652-.714-5.61h-.918V0H166.374Zm68.544,0h48.348v13.056h-31.62V-45.39H281.43v12.954H251.646v19.38h32.538V0H234.918Zm117.2,13.056H332.124V0H315.4V-64.974H295.4V-78.03h56.712ZM397.4-12.648H413.01V0H365.07V-12.648h15.606V-65.382H365.07V-78.03h47.94v12.648H397.4Zm30.09-65.382h17.85l5.916,24.582q.612,2.652,1.122,5.814t.918,6.018q.408,3.366.918,6.732h.816l.816-6.732q.408-2.856.969-6.069t1.173-5.763l5.916-24.582h17.238V0H466.968V-54.57h-.918q-.408,2.958-.816,5.61-.306,2.346-.663,4.794t-.663,4.08L459.93-20.3H448.2l-4.08-19.788a35.286,35.286,0,0,1-.714-4.08q-.306-2.448-.612-4.794-.408-2.652-.714-5.61h-.918V0H427.494Zm68.544,0h48.348v13.056h-31.62V-45.39H542.55v12.954H512.766v19.38H545.3V0H496.038ZM596-56.814a16.074,16.074,0,0,0-.867-3.876,9.342,9.342,0,0,0-1.938-3.213,9.047,9.047,0,0,0-3.264-2.193,12.468,12.468,0,0,0-4.743-.816,11.186,11.186,0,0,0-7.293,2.448,8.206,8.206,0,0,0-3.009,6.732q0,4.284,2.04,6.426t7.242,3.366L593.55-45.7q10.1,2.448,15.249,7.65T613.95-23.46q0,12.036-7.65,18.564T585.186,1.632q-13.464,0-20.961-6.12t-8.313-17.85H572.13a13.167,13.167,0,0,0,3.57,8.211q3.06,3.111,9.486,3.111,5.814,0,9.078-2.8a9.163,9.163,0,0,0,3.264-7.293q0-4.386-2.4-6.732t-8.313-3.672l-9.486-2.142a35.506,35.506,0,0,1-7.344-2.6A20.045,20.045,0,0,1,563.97-40.7a20.506,20.506,0,0,1-4.029-6.528A23.947,23.947,0,0,1,558.462-56a22.948,22.948,0,0,1,1.836-9.231,21.787,21.787,0,0,1,5.253-7.395,24.183,24.183,0,0,1,8.415-4.947,33.86,33.86,0,0,1,11.424-1.785q12.75,0,19.38,5.763t7.344,16.779ZM679.94,0l-4.794-78.03H689.12l2.958,56.406h.816q.2-2.55.612-5.1.306-2.142.663-4.488t.765-4.08l5.2-24.378h11.118l5.2,24.378q.408,1.836.816,4.182t.714,4.488l.714,5h.714L722.27-78.03h13.464L730.94,0H712.478L707.99-22.236q-.612-2.958-1.122-5.865t-.816-5.253q-.408-2.652-.612-5.1h-.714q-.2,2.346-.612,5-.306,2.346-.816,5.253t-1.122,5.865L697.382,0Zm67.218-78.03h48.348v13.056h-31.62V-45.39H793.67v12.954H763.886v19.38h32.538V0H747.158Zm117.3,0H882.3l5.916,24.582q.612,2.652,1.122,5.814t.918,6.018q.408,3.366.918,6.732h.816l.816-6.732q.408-2.856.969-6.069t1.173-5.763l5.916-24.582h17.238V0H903.928V-54.57h-.918q-.408,2.958-.816,5.61-.306,2.346-.663,4.794t-.663,4.08L896.89-20.3H885.16l-4.08-19.788a35.273,35.273,0,0,1-.714-4.08q-.306-2.448-.612-4.794-.408-2.652-.714-5.61h-.918V0H864.454Zm90.984,12.546q0,.2-.2,1.785t-.561,4.182q-.357,2.6-.867,5.967t-1.224,7.038L949.42-29.58h13.362l-3.264-17.034q-.816-3.876-1.275-7.242t-.765-6.018q-.408-3.06-.51-5.61Zm9.894,48.246h-18.36L943.2,0H927.286l17.442-78.03h23.664L985.834,0H969.106ZM1011.028,0H994.606V-78.03h16.422v31.314L1034.08-78.03h17.952L1026.94-44.778,1053.46,0h-19.176l-18.768-32.436-4.488,6.018Zm52.53-78.03h48.348v13.056h-31.62V-45.39h29.784v12.954h-29.784v19.38h32.538V0h-49.266ZM1208.8-66.4a10.509,10.509,0,0,0-6.222,1.734,11.543,11.543,0,0,0-3.876,5.2,32.017,32.017,0,0,0-1.989,8.67,114.771,114.771,0,0,0-.561,12.138q0,6.936.51,12.087a29.478,29.478,0,0,0,1.938,8.517,11.4,11.4,0,0,0,3.825,5.049,10.693,10.693,0,0,0,6.273,1.683,10.326,10.326,0,0,0,8.517-3.723q3.009-3.723,3.009-12.087V-29.07H1207.68V-41.616h27.948V0h-12.75V-7.446h-.816a16.23,16.23,0,0,1-6.018,6.579,18.266,18.266,0,0,1-9.894,2.5,26.056,26.056,0,0,1-12.342-2.7,22.152,22.152,0,0,1-8.313-7.65,35.047,35.047,0,0,1-4.692-11.934,75.308,75.308,0,0,1-1.479-15.555,92.269,92.269,0,0,1,1.632-18.309,38.416,38.416,0,0,1,5.2-13.464,23.571,23.571,0,0,1,9.231-8.313,30.188,30.188,0,0,1,13.719-2.856,30.52,30.52,0,0,1,11.373,1.938,22.5,22.5,0,0,1,8.058,5.3,22.163,22.163,0,0,1,4.845,7.9,32.114,32.114,0,0,1,1.836,9.639h-15.912a15.427,15.427,0,0,0-2.652-8.67Q1214.208-66.4,1208.8-66.4Zm63.036.918q0,.2-.2,1.785t-.561,4.182q-.357,2.6-.867,5.967t-1.224,7.038L1265.82-29.58h13.362l-3.264-17.034q-.816-3.876-1.275-7.242t-.765-6.018q-.408-3.06-.51-5.61Zm9.894,48.246h-18.36L1259.6,0h-15.912l17.442-78.03h23.664L1302.234,0h-16.728Zm29.682-60.792h17.85l5.916,24.582q.612,2.652,1.122,5.814t.918,6.018q.408,3.366.918,6.732h.816l.816-6.732q.408-2.856.969-6.069t1.173-5.763l5.916-24.582h17.238V0h-14.178V-54.57h-.918q-.408,2.958-.816,5.61-.306,2.346-.663,4.794t-.663,4.08L1343.85-20.3h-11.73l-4.08-19.788a35.286,35.286,0,0,1-.714-4.08q-.306-2.448-.612-4.794-.408-2.652-.714-5.61h-.918V0h-13.668Zm68.544,0h48.348v13.056h-31.62V-45.39h29.784v12.954h-29.784v19.38h32.538V0h-49.266Zm99.96,21.216a16.08,16.08,0,0,0-.867-3.876,9.344,9.344,0,0,0-1.938-3.213,9.046,9.046,0,0,0-3.264-2.193,12.468,12.468,0,0,0-4.743-.816,11.186,11.186,0,0,0-7.293,2.448,8.207,8.207,0,0,0-3.009,6.732q0,4.284,2.04,6.426t7.242,3.366l9.384,2.244q10.1,2.448,15.249,7.65t5.151,14.586q0,12.036-7.65,18.564t-21.114,6.528q-13.464,0-20.961-6.12t-8.313-17.85h16.218a13.167,13.167,0,0,0,3.57,8.211q3.06,3.111,9.486,3.111,5.814,0,9.078-2.8a9.163,9.163,0,0,0,3.264-7.293q0-4.386-2.4-6.732t-8.313-3.672l-9.486-2.142a35.5,35.5,0,0,1-7.344-2.6,20.045,20.045,0,0,1-6.018-4.437,20.506,20.506,0,0,1-4.029-6.528A23.949,23.949,0,0,1,1442.382-56a22.948,22.948,0,0,1,1.836-9.231,21.788,21.788,0,0,1,5.253-7.395,24.183,24.183,0,0,1,8.415-4.947,33.86,33.86,0,0,1,11.424-1.785q12.75,0,19.38,5.763t7.344,16.779Z" transform="translate(1702 99)" fill="#31e087"/><path d="M188.6-51.246v8.514Q170.283-27.31,152.291-13.253T108.6,18.153Q95.423,36.145,85.945,47.631T69.559,66.667q-6.908,7.55-7.068,7.711a24.075,24.075,0,0,1-7.55,5.462q-5.3,2.731-8.835,2.731a10.719,10.719,0,0,1-8.273-3.615,12.33,12.33,0,0,1-3.293-8.594q0-12.852,13.494-27.39t39.519-29.8Q100.4-5.3,112.13-24.016t20.482-34.137q8.755-15.422,16.145-30.362-11.566,9.639-22.972,18.554t-22.33,17.028Q92.531-44.82,89.961-42.892l-4.5,3.374Q57.511-15.1,43.7-15.1q-13.173,0-22.169-12.53t-9-31.647a88.924,88.924,0,0,1,3.855-25.141,124.993,124.993,0,0,1,11.807-26.908,172.958,172.958,0,0,1,19.036-26.667,188.639,188.639,0,0,1,24.418-23.615,267.744,267.744,0,0,1,46.1-29.318A309.3,309.3,0,0,1,165.3-210.685q22.008-6.827,32.45-6.827,6.1,0,9.719,2.972a16.107,16.107,0,0,1,5.141,8.032,36.8,36.8,0,0,1,1.526,10.683,19.265,19.265,0,0,1-3.213,10.281q-4.659,6.908-16.386,14.538a229.33,229.33,0,0,1-23.615,13.494q-11.888,5.864-13.655,5.864-.964,0-.964-.643,0-1.446,3.695-4.659t8.193-6.586q9.96-7.55,11.727-16.064a208.693,208.693,0,0,0-31,11.406A239.13,239.13,0,0,0,118.4-151.327,321.339,321.339,0,0,0,88.194-129a193.871,193.871,0,0,0-29,29.8Q47.229-83.7,41.045-70.523T34.86-50.282a13.748,13.748,0,0,0,3.374,9.237,11.435,11.435,0,0,0,9.157,3.936q6.747,0,16.707-5.944a239.7,239.7,0,0,0,23.7-16.466q12.932-10.04,23.856-19.036t23.615-19.759q11.727-9.8,18.233-15.823a73.3,73.3,0,0,0,9.719-10.522q6.747-9.317,13.414-10.763a12.472,12.472,0,0,1,11.406,2.651,12.778,12.778,0,0,1,4.739,10.04q0,1.928-6.988,15.02T164.42-69.8Q150.042-44.98,129-11.245,147.632-21.205,188.6-51.246Zm17.992-28.113q24.418-22.169,47.39-32.932t35.5-10.763a8.86,8.86,0,0,1,6.265,2.811,21.371,21.371,0,0,1,4.578,6.506,15.153,15.153,0,0,1,1.687,5.462,4.625,4.625,0,0,1-2.249,4.257,44.81,44.81,0,0,1-7.872,3.293q1.124,2.57,2.892,6.586t2.731,6.506a12.456,12.456,0,0,1,.964,4.418q0,3.855-7.791,14.378t-10.924,15.5a22.491,22.491,0,0,0-3.133,12.209q0,11.888,10.924,11.888,11.245,0,35.181-21.044v9.8Q282.092,4.659,264.582,4.659q-6.265,0-8.916-4.1t-2.651-12.129q0-12.691,9.157-36.788-23.454,26.024-34.86,37.029t-18.8,11q-3.534,0-8.835-6.1a58.863,58.863,0,0,1-9.4-15.823,51.41,51.41,0,0,1-4.1-20.161,46.667,46.667,0,0,1,1.446-12.611,30.568,30.568,0,0,1,5.623-10.362A143.146,143.146,0,0,1,206.589-79.358Zm76.949-17.671q-41.768,19.117-59.519,32.45t-17.751,27.47a17.752,17.752,0,0,0,1.767,8.434q1.767,3.293,4.819,3.293,1.767,0,6.265-2.249a126.263,126.263,0,0,0,30.844-25.944Q263.939-69.559,283.538-97.029ZM394.7-28.595q22.169-19.6,38.073-34.137t24.98-22.892q9.076-8.354,15.984-14.137t8.835-5.783q3.695-.161,7.068,7.631t3.374,12.45q0,3.052-10.2,14.378T467.556-53.013a23.226,23.226,0,0,0-5.06,14.137,9.029,9.029,0,0,0,2.892,6.988,9.871,9.871,0,0,0,6.908,2.651q4.659,0,11.165-4.819t20.482-17.189V-39.84Q489.966-26.667,478.56-17.109a136.352,136.352,0,0,1-19.84,14.3q-8.434,4.739-14.056,4.739a10.756,10.756,0,0,1-8.354-3.775,13.584,13.584,0,0,1-3.374-9.4,34.033,34.033,0,0,1,1.928-11.084,100.033,100.033,0,0,1,5.944-13.333q4.016-7.711,10.6-18.554t12.048-19.84q-16.386,13.333-29.077,25.7T413.66-26.747q-8.032,9.237-12.691,14.538-9,9.96-16.707,9.96-8.354,0-8.354-11.888,0-4.819,6.265-17.269T400-63.133a6.72,6.72,0,0,0,.964-4.016q0-3.213-3.213-3.213-3.534,0-10.2,6.667T361.771-35.824a168.648,168.648,0,0,0-11.968,15.5A154.633,154.633,0,0,1,340.245-7.55q-2.892,3.213-5.783,3.213-5.783,0-10.763-10.281t-4.98-23.936a41.19,41.19,0,0,1,3.293-17.189,150.721,150.721,0,0,1,10.2-17.992Q342.976-89.318,349.8-95.985t14.378-6.667a15.565,15.565,0,0,1,7.872,1.847,5.636,5.636,0,0,1,3.213,5.06q0,3.374-5.864,11.084a120.709,120.709,0,0,1-14.86,15.9,62.485,62.485,0,0,0-9.157,11.486q-4.337,6.827-4.337,9.88,0,4.337,3.374,4.337,2.731,0,13.815-11.245t24.338-24.5A262.618,262.618,0,0,1,407.154-100.8q11.325-8.755,19.2-8.755a10.063,10.063,0,0,1,7.952,3.615,13.134,13.134,0,0,1,3.133,8.916q0,3.534-4.819,12.771a238.78,238.78,0,0,1-14.056,22.812Q409.322-47.872,394.7-28.595ZM528.521-44.82V-40.8q0,9.478,4.659,14.779a15.475,15.475,0,0,0,12.209,5.3,40.539,40.539,0,0,0,16.305-3.695,89.237,89.237,0,0,0,16.787-9.8q8.354-6.1,20.4-16.386v9.8Q580.73-18.956,564.826-7.309T532.537,4.337q-14.3,0-22.651-11.084t-8.354-30.362a60.441,60.441,0,0,1,7.872-30.6q7.872-13.735,25.7-29a99.252,99.252,0,0,1,24.257-15.743q12.048-5.3,21.526-5.3,7.55,0,11.968,3.454t4.418,10.362q0,10.121-7.55,20.161t-23.052,19.92Q551.171-53.977,528.521-44.82Zm1.606-10.442a91.487,91.487,0,0,0,24.739-13.976q10.281-8.354,15.181-15.984t4.9-11.165q0-3.695-3.374-3.695-2.892,0-9.4,3.695A77.5,77.5,0,0,0,549-86.748a70.94,70.94,0,0,0-11.968,13.976A45.149,45.149,0,0,0,530.127-55.262ZM598.24-46.1V-49.96q41.446-43.7,57.029-61.206,3.534-19.759,17.028-19.759A16.251,16.251,0,0,1,679.526-129l.964,3.052a18.068,18.068,0,0,0-.643,5.462q0,3.052,2.329,11.325t3.615,13.9a57.15,57.15,0,0,1,1.285,12.691,45.182,45.182,0,0,1-4.819,20.322,69.024,69.024,0,0,1-13.976,18.635,151.839,151.839,0,0,1-23.615,18.233,59,59,0,0,0,9.157.964,36.066,36.066,0,0,0,14.217-3.293,89.326,89.326,0,0,0,15.583-8.835q7.952-5.542,18.554-14.378v10.763Q681.615-20.081,665.39-9.719T637.438.643q-15.1,0-27.952-12.852-7.55-7.711-9.4-14.779T598.24-46.1Zm59.92-24.579-2.892-23.454q-9.96,11.245-42.571,43.213,9.639,2.088,13.173,5.623t9.96,13.655q10.924-4.5,16.787-12.289t5.864-21.285q0-1.606-.08-2.892T658.161-70.684Z" transform="translate(2345 854) rotate(-16)" fill="#31e087"/><path d="M470.167,464.9h0a30.267,30.267,0,0,0-3.315-5.427,39.144,39.144,0,0,0-11.186-10.129q.338-.406.723-.862l.129-.153a102.417,102.417,0,0,0,11.725-16.39,59.143,59.143,0,0,0,5.032-11.822,43.923,43.923,0,0,0,1.86-13.591,50.9,50.9,0,0,0-3.039-15.778,52.761,52.761,0,0,0-7.17-13.409,46.992,46.992,0,0,0-9.9-10,33.089,33.089,0,0,0-11.219-5.539l-.018,0V304.84a21.651,21.651,0,0,0-2.681-10.688,39.967,39.967,0,0,0-5.478-7.26c-2.711-3.05-5.052-5.684-5.052-9.052V276.5a6.885,6.885,0,0,1,2.014-4.789,9.235,9.235,0,0,1,5.4-2.621l48-6.76a33.953,33.953,0,0,1,4.71-.366c3.129,0,5.519.6,7.106,1.791a6.27,6.27,0,0,1,2.394,5.335V398.54c0,14.612-2.7,27.831-8.025,39.29a72.959,72.959,0,0,1-21.456,27.033ZM599.941,422.06a58.664,58.664,0,0,1-21.645-3.823A44.146,44.146,0,0,1,561.75,406.9a50.9,50.9,0,0,1-10.57-18.649,82.933,82.933,0,0,1-3.718-25.761V286.17h-12.24a7.419,7.419,0,0,1-7.41-7.411v-7.14a5.561,5.561,0,0,1,5-5.37,86.706,86.706,0,0,0,33-10.47,13.348,13.348,0,0,0,1.34-.78,89.713,89.713,0,0,0,14.7-10.85,77.2,77.2,0,0,0,14.88-18,3.84,3.84,0,0,1,5.48-1.22,7.984,7.984,0,0,1,3.281,6.81v32.52h33.16a7.419,7.419,0,0,1,7.41,7.411v7.079a7.418,7.418,0,0,1-7.41,7.411h-33.16V363.44c0,5.227,1.461,9.654,4.226,12.8a13.455,13.455,0,0,0,10.264,4.589c5.7,0,10.279-1.238,14.007-3.784a25.374,25.374,0,0,0,7.243-8.126,8.357,8.357,0,0,1,6.481-3.479,5.746,5.746,0,0,1,4.141,1.641,5.583,5.583,0,0,1,1.548,4.1,51.315,51.315,0,0,1-.857,9.3,52,52,0,0,1-2.56,9.1,49.973,49.973,0,0,1-10.15,16.328A48.916,48.916,0,0,1,623.1,417.6,58.823,58.823,0,0,1,599.941,422.06Zm-364.11-.011A72.108,72.108,0,0,1,223.9,421.1a55.529,55.529,0,0,1-10.335-2.757,50.136,50.136,0,0,1-16.733-10.467v2.9c0,3.09-.639,5.149-2.01,6.48-1.328,1.289-3.349,1.89-6.36,1.89l-48.62-.32a8.462,8.462,0,0,1-5.4-1.613,5.585,5.585,0,0,1-2.014-4.507v-1.29c0-3.92,2.41-6.829,5.2-10.2,3.6-4.344,7.68-9.268,7.68-17.8V244.039a136.3,136.3,0,0,1-28.42,2.861,126.213,126.213,0,0,1-16.353-1.047,114.929,114.929,0,0,1-15.568-3.14,110.666,110.666,0,0,1-14.783-5.234,113.162,113.162,0,0,1-14-7.328,121.5,121.5,0,0,1-24.03-19.242,112.358,112.358,0,0,1-17.67-24.228A117.746,117.746,0,0,1,0,129.69,140.539,140.539,0,0,1,2.3,104.027,122.252,122.252,0,0,1,9.181,80.42,119.151,119.151,0,0,1,19.889,59.833a95.744,95.744,0,0,1,13.763-16.6,113.755,113.755,0,0,1,34.78-22.86,103.073,103.073,0,0,1,40.31-8.21h.1a168.2,168.2,0,0,1,19.437,1.087,134.057,134.057,0,0,1,17.749,3.261,111.231,111.231,0,0,1,16.061,5.434,98.206,98.206,0,0,1,14.374,7.608A80.247,80.247,0,0,1,188.3,38.707a54.586,54.586,0,0,1,8.445,10.083A42.733,42.733,0,0,1,201.8,59.8a42.058,42.058,0,0,1,1.665,11.932,30.626,30.626,0,0,1-1.77,10.7A23.168,23.168,0,0,1,188.183,96.04a29.4,29.4,0,0,1-10.452,1.77h-.03l-.377,0a36,36,0,0,1-20.552-6.442,67.443,67.443,0,0,1-16.1-15.61c-4.485-6.1-8.858-12.33-13-18.52a64.944,64.944,0,0,0-14.81-15.78,30.657,30.657,0,0,0-33.883-2.51A36.061,36.061,0,0,0,67,50.8a60.205,60.205,0,0,0-7.722,18.043A92.506,92.506,0,0,0,56.671,91.37a190.9,190.9,0,0,0,1.349,22.985,159.3,159.3,0,0,0,4.046,21.293,139.412,139.412,0,0,0,6.744,19.6,129.911,129.911,0,0,0,9.441,17.91,103.506,103.506,0,0,0,11.313,14.932,68.615,68.615,0,0,0,12.358,10.666,51.792,51.792,0,0,0,13.4,6.4,49.268,49.268,0,0,0,14.448,2.133c7.253,0,13.427-1.083,18.35-3.22V161.89a16.719,16.719,0,0,0-2.25-8.21,29.972,29.972,0,0,0-6.75-7.89,49.848,49.848,0,0,1-6.75-6.763c-1.493-1.923-2.25-3.547-2.25-4.827v-1.29a5.5,5.5,0,0,1,2.41-4.67,9.76,9.76,0,0,1,5.632-1.777c.123,0,.246,0,.368.007l71.81.32c2.562,0,4.51.542,5.79,1.61a5.955,5.955,0,0,1,1.93,4.83v1.291c0,2.568-2.6,6.467-7.72,11.589a29.263,29.263,0,0,0-5.792,7.885,18.936,18.936,0,0,0-1.938,8.215v10.12c.188,3.265.3,7.217.34,12.081V270.7a44.028,44.028,0,0,1,14.61-7.245,65.227,65.227,0,0,1,18.24-2.415h.085a80.123,80.123,0,0,1,27.222,4.8,77.308,77.308,0,0,1,12.8,6.015,73.171,73.171,0,0,1,11.6,8.445,70.072,70.072,0,0,1,17.575,24.235,84.216,84.216,0,0,1,6.748,34.12,93.986,93.986,0,0,1-6.26,34.492A79.183,79.183,0,0,1,288.8,399.426a75.3,75.3,0,0,1-11.38,9.648,73.13,73.13,0,0,1-41.594,12.975ZM222.311,276.82a16.519,16.519,0,0,0-14.007,7.409,27.421,27.421,0,0,0-3.925,8.9,48.328,48.328,0,0,0-1.389,12.035v62.47a46.882,46.882,0,0,0,8.535,26.685c5.433,7.6,12.415,11.955,19.155,11.955a21.5,21.5,0,0,0,10.757-2.626,21.076,21.076,0,0,0,7.645-7.758c4.033-6.787,6.079-16.943,6.079-30.185a235.022,235.022,0,0,0-1.827-28.56,183.283,183.283,0,0,0-5.782-28.922c-2.827-9.581-6.255-17.117-10.19-22.4C232.916,279.847,227.852,276.82,222.311,276.82ZM704.779,407.886A73.046,73.046,0,0,1,691,395.586a74.4,74.4,0,0,1-10.363-15.557,81.626,81.626,0,0,1-6.525-18.455,95.523,95.523,0,0,1-2.268-20.995,82.911,82.911,0,0,1,6.41-32.632,74.5,74.5,0,0,1,17.339-25.015A76.85,76.85,0,0,1,707.47,273.7a80.144,80.144,0,0,1,13.548-6.839,84.06,84.06,0,0,1,14.862-4.274,88.3,88.3,0,0,1,15.82-1.544c.316,0,.641,0,.966,0a94.659,94.659,0,0,1,25.8,3.346,61.731,61.731,0,0,1,19.924,9.468,43.046,43.046,0,0,1,12.839,14.737,41.039,41.039,0,0,1,4.548,19.153,35.925,35.925,0,0,1-3.795,16.023A44.964,44.964,0,0,1,801.368,337.4,62.814,62.814,0,0,1,785.077,347.7a83.378,83.378,0,0,1-20.816,6.038,163.554,163.554,0,0,1-27.477,2.331c-1.587,0-3.2-.024-4.784-.07a55.526,55.526,0,0,0,7.335,10.867,45.9,45.9,0,0,0,9.328,8.21,41.974,41.974,0,0,0,11.139,5.191,44.79,44.79,0,0,0,12.768,1.811c.244,0,.5,0,.748,0-10.332,12.539-14.457,20.793-14.5,20.875a35.177,35.177,0,0,0-12.06-10.187,31.048,31.048,0,0,0-6.789-2.489,29.995,29.995,0,0,0-23.111,3.9,31.717,31.717,0,0,0-6.742,5.764,34.763,34.763,0,0,0-5.239,7.912l-.1.034ZM744.891,278.11a16.326,16.326,0,0,0-8.981,2.646A22.318,22.318,0,0,0,729,288.171a39.554,39.554,0,0,0-4.436,11.4A64.433,64.433,0,0,0,723,314.17a102.315,102.315,0,0,0,2.9,24.8c1.575.09,3.179.137,4.766.137A83.345,83.345,0,0,0,742,338.33c7.365-1.341,12.684-4.62,16.259-10.025a31.414,31.414,0,0,0,4.2-10.309,65.136,65.136,0,0,0,1.428-14.446c-.156-6.911-2.157-13.316-5.634-18.034C754.738,280.74,749.991,278.11,744.891,278.11ZM360.416,397.754c-8.645-10.642-13.215-24.178-13.215-39.143V304.84a22.092,22.092,0,0,0-2.614-10.688,39.893,39.893,0,0,0-5.341-7.26c-2.643-3.05-4.925-5.684-4.925-9.052V276.5a6.886,6.886,0,0,1,2.014-4.789,9.234,9.234,0,0,1,5.4-2.621l48-6.44a37.64,37.64,0,0,1,5.053-.378c3.22,0,5.713.559,7.412,1.662a5.768,5.768,0,0,1,2.665,5.156l-1,95.32c-.021,1.455-.013,2.881.022,4.24-.492.235-5.026,2.423-12.647,7.122A304.657,304.657,0,0,0,360.48,397.7l-.063.051ZM675.628,246.9h-.037a83.328,83.328,0,0,1-15.066-1.338,72.625,72.625,0,0,1-26.805-10.7,81.555,81.555,0,0,1-11.739-9.367,68.232,68.232,0,0,1-9.79-11.722,70.42,70.42,0,0,1-7-13.755,83.51,83.51,0,0,1-4.21-15.789,109.271,109.271,0,0,1-1.42-17.823,97.091,97.091,0,0,1,1.409-16.775A80.337,80.337,0,0,1,605.2,134.4a74.153,74.153,0,0,1,7.044-13.675A77.748,77.748,0,0,1,622.1,108.6a83.508,83.508,0,0,1,11.813-9.931,72.521,72.521,0,0,1,12.9-7.094A71.038,71.038,0,0,1,660.8,87.318,78.847,78.847,0,0,1,675.871,85.9a69.339,69.339,0,0,1,18.112,2.25,51.41,51.41,0,0,1,15.057,6.75V52.09A16.033,16.033,0,0,0,704.851,41a65.632,65.632,0,0,0-8.53-8c-2.867-2.283-4.32-4.746-4.32-7.321v-1a7.526,7.526,0,0,1,1.852-5.152,11.869,11.869,0,0,1,5.557-3.218l50.2-15.1A22.394,22.394,0,0,1,756.2,0a7.058,7.058,0,0,1,5.679,2.235c1.257,1.483,1.895,3.739,1.9,6.705V208.58a21.327,21.327,0,0,0,1.61,8.01,31.164,31.164,0,0,0,4.83,7.93c4.273,5.236,6.44,9.189,6.44,11.749v1.291a5.632,5.632,0,0,1-1.853,4.59,8.618,8.618,0,0,1-5.558,1.53h-46c-2.78,0-4.895-.677-6.285-2.013s-2.1-3.367-2.1-6.038v-2.9A50.207,50.207,0,0,1,697.5,243.357,64.325,64.325,0,0,1,675.628,246.9ZM680.1,101.68a21.865,21.865,0,0,0-10.53,2.475,21.371,21.371,0,0,0-7.75,7.425,40.48,40.48,0,0,0-4.97,12.375,90.5,90.5,0,0,0-2.19,17.325c-.424,10.053.5,21.862,2.741,35.1A140.019,140.019,0,0,0,669,213.57c2.708,5.72,5.715,10.1,8.938,13.007a16.159,16.159,0,0,0,10.492,4.543c.245.009.492.014.735.014a16.53,16.53,0,0,0,7.583-1.773,19.709,19.709,0,0,0,6.332-5.321,25.447,25.447,0,0,0,4.48-8.7,39.913,39.913,0,0,0,1.52-11.295V141.93a46.825,46.825,0,0,0-8.861-27.86,33.708,33.708,0,0,0-9.455-9.292A20.1,20.1,0,0,0,680.1,101.68ZM502.222,246.9H502a109.623,109.623,0,0,1-17.961-1.437,93.506,93.506,0,0,1-16.532-4.312,87.761,87.761,0,0,1-15.1-7.187A91.77,91.77,0,0,1,438.731,223.9a82.94,82.94,0,0,1-11.34-12.238,71.343,71.343,0,0,1-12.96-28.9,86.642,86.642,0,0,1-.01-33.3,72.031,72.031,0,0,1,4.83-15.126,71.178,71.178,0,0,1,8.05-13.614,81.3,81.3,0,0,1,11.27-12.1,94.088,94.088,0,0,1,13.484-9.928A87.058,87.058,0,0,1,466.746,91.6a89.4,89.4,0,0,1,15.9-4.257,101.355,101.355,0,0,1,17.106-1.422,106.893,106.893,0,0,1,17.67,1.429,91.926,91.926,0,0,1,16.3,4.286,87.091,87.091,0,0,1,14.933,7.144,91.874,91.874,0,0,1,13.565,10,81.529,81.529,0,0,1,11.27,12.2,71.844,71.844,0,0,1,8.05,13.732,73.133,73.133,0,0,1,4.83,15.267,88.68,88.68,0,0,1,.04,33.434,73.369,73.369,0,0,1-4.71,15.124,71.665,71.665,0,0,1-7.85,13.616,80.67,80.67,0,0,1-10.99,12.109,89.568,89.568,0,0,1-13.181,9.9,83.968,83.968,0,0,1-14.5,7.075,87.829,87.829,0,0,1-15.82,4.245A101.609,101.609,0,0,1,502.222,246.9ZM490.751,101.68a18.029,18.029,0,0,0-9.66,2.5,17.549,17.549,0,0,0-6.44,7.5,45.849,45.849,0,0,0-3.623,12.567,114.262,114.262,0,0,0-1.208,17.7A146.5,146.5,0,0,0,472.371,167a246.691,246.691,0,0,0,7.079,29.139,76.492,76.492,0,0,0,12.4,24.8,30.726,30.726,0,0,0,8.172,7.635,16.8,16.8,0,0,0,8.738,2.545h.01a16.41,16.41,0,0,0,9.013-2.476,18.977,18.977,0,0,0,6.437-7.427,42.942,42.942,0,0,0,3.863-12.378,103.075,103.075,0,0,0,1.288-17.329c0-9.614-1.346-21.2-4-34.45a136.263,136.263,0,0,0-13.53-37.67c-3.147-5.876-6.515-10.344-10.011-13.282a20.055,20.055,0,0,0-5.4-3.321,15.189,15.189,0,0,0-5.664-1.107ZM315.781,246.9h-.221a109.7,109.7,0,0,1-17.968-1.437,93.5,93.5,0,0,1-16.534-4.312,87.676,87.676,0,0,1-15.1-7.187A91.624,91.624,0,0,1,252.291,223.9a82.982,82.982,0,0,1-11.332-12.238,71.43,71.43,0,0,1-12.96-28.9,86.46,86.46,0,0,1-.018-33.3,72.045,72.045,0,0,1,4.828-15.126,71.185,71.185,0,0,1,8.047-13.614,81.284,81.284,0,0,1,11.266-12.1A94.009,94.009,0,0,1,265.6,98.692,87.014,87.014,0,0,1,280.293,91.6a89.408,89.408,0,0,1,15.9-4.257,101.441,101.441,0,0,1,17.115-1.422,106.847,106.847,0,0,1,17.666,1.429,91.9,91.9,0,0,1,16.3,4.286,87.076,87.076,0,0,1,14.931,7.144,91.869,91.869,0,0,1,13.564,10,81.532,81.532,0,0,1,11.27,12.2,71.836,71.836,0,0,1,8.05,13.732,73.132,73.132,0,0,1,4.83,15.267,88.7,88.7,0,0,1,.04,33.434,73.381,73.381,0,0,1-4.708,15.124,71.68,71.68,0,0,1-7.847,13.616A80.659,80.659,0,0,1,376.42,224.26a89.5,89.5,0,0,1-13.177,9.9,83.917,83.917,0,0,1-14.5,7.075,87.818,87.818,0,0,1-15.821,4.245A101.647,101.647,0,0,1,315.781,246.9ZM304.321,101.68a18.039,18.039,0,0,0-9.665,2.5,17.518,17.518,0,0,0-6.435,7.5,45.98,45.98,0,0,0-3.617,12.567,114.61,114.61,0,0,0-1.212,17.7A145.522,145.522,0,0,0,285.941,167,242.772,242.772,0,0,0,293,196.18a76.093,76.093,0,0,0,12.4,24.8,30.73,30.73,0,0,0,8.18,7.605,16.859,16.859,0,0,0,8.74,2.535,16.423,16.423,0,0,0,9.017-2.476,18.98,18.98,0,0,0,6.441-7.427,42.932,42.932,0,0,0,3.864-12.378,103.037,103.037,0,0,0,1.288-17.329c0-9.617-1.346-21.207-4-34.45a135.958,135.958,0,0,0-13.52-37.67c-3.15-5.876-6.52-10.345-10.016-13.282a20.061,20.061,0,0,0-5.4-3.321,15.176,15.176,0,0,0-5.661-1.107Z" transform="translate(2048 204)" fill="#31e087"/></g></svg>