<?xml version="1.0" encoding="UTF-8" standalone="no"?>
<!DOCTYPE svg PUBLIC "-//W3C//DTD SVG 1.1//EN" "http://www.w3.org/Graphics/SVG/1.1/DTD/svg11.dtd">
<svg width="100%" height="100%" viewBox="0 0 961 718" version="1.1" xmlns="http://www.w3.org/2000/svg" xmlns:xlink="http://www.w3.org/1999/xlink" xml:space="preserve" xmlns:serif="http://www.serif.com/" style="fill-rule:evenodd;clip-rule:evenodd;stroke-linejoin:round;stroke-miterlimit:2;">
    <g transform="matrix(1,0,0,1,-312.327,-184.338)">
        <g transform="matrix(1,0,0,1,-1735.67,-19.644)">
            <g transform="matrix(0.961262,-0.275637,0.275637,0.961262,2345,854)">
                <path d="M188.6,-51.246L188.6,-42.732C176.389,-32.451 164.286,-22.624 152.291,-13.253C140.296,-3.882 125.733,6.587 108.6,18.153C99.815,30.148 92.264,39.974 85.945,47.631C79.626,55.288 74.164,61.634 69.559,66.667C64.954,71.7 62.598,74.271 62.491,74.378C60.354,76.673 57.789,78.528 54.941,79.84C51.408,81.661 48.463,82.571 46.106,82.571C42.952,82.643 39.923,81.319 37.833,78.956C35.668,76.625 34.487,73.543 34.54,70.362C34.54,61.794 39.038,52.664 48.034,42.972C57.03,33.28 70.203,23.347 87.553,13.172C96.118,0.857 104.31,-11.539 112.13,-24.016C119.95,-36.493 126.777,-47.872 132.612,-58.153C138.449,-68.434 143.83,-78.555 148.757,-88.515C141.046,-82.089 133.389,-75.904 125.785,-69.961C118.181,-64.018 110.738,-58.342 103.455,-52.933C96.172,-47.524 91.674,-44.177 89.961,-42.892L85.461,-39.518C66.828,-23.239 52.907,-15.1 43.7,-15.1C34.918,-15.1 27.528,-19.277 21.531,-27.63C15.534,-35.983 12.534,-46.532 12.531,-59.277C12.605,-67.799 13.903,-76.266 16.386,-84.418C19.25,-93.82 23.213,-102.852 28.193,-111.326C33.68,-120.797 40.054,-129.726 47.229,-137.993C54.642,-146.583 62.814,-154.487 71.647,-161.608C85.974,-172.927 101.421,-182.751 117.747,-190.926C133.021,-198.823 148.927,-205.432 165.3,-210.685C179.972,-215.236 190.789,-217.512 197.75,-217.512C201.817,-217.512 205.056,-216.521 207.469,-214.54C209.954,-212.443 211.746,-209.642 212.61,-206.508C213.641,-203.041 214.155,-199.442 214.136,-195.825C214.064,-192.163 212.95,-188.595 210.923,-185.544C207.817,-180.939 202.355,-176.093 194.537,-171.006C186.939,-166.045 179.054,-161.539 170.922,-157.512C162.997,-153.603 158.445,-151.648 157.267,-151.648C156.624,-151.648 156.303,-151.862 156.303,-152.291C156.303,-153.255 157.535,-154.808 159.998,-156.95C162.461,-159.092 165.192,-161.287 168.191,-163.536C174.831,-168.569 178.74,-173.924 179.918,-179.6C169.3,-176.623 158.934,-172.809 148.918,-168.194C138.348,-163.322 128.149,-157.684 118.4,-151.327C107.905,-144.48 97.819,-137.025 88.194,-129C77.487,-120.135 67.764,-110.144 59.194,-99.2C51.217,-88.867 45.168,-79.308 41.045,-70.523C36.922,-61.738 34.861,-54.991 34.86,-50.282C34.807,-46.893 36.01,-43.602 38.234,-41.045C40.522,-38.404 43.9,-36.952 47.391,-37.109C51.889,-37.109 57.458,-39.09 64.098,-43.053C72.322,-48.061 80.236,-53.559 87.798,-59.519C96.419,-66.212 104.371,-72.558 111.654,-78.555C118.937,-84.552 126.808,-91.139 135.269,-98.314C143.087,-104.847 149.165,-110.122 153.502,-114.137C157.077,-117.319 160.333,-120.843 163.221,-124.659C167.719,-130.87 172.19,-134.458 176.635,-135.422C180.638,-136.488 184.919,-135.493 188.041,-132.771C191.066,-130.323 192.813,-126.622 192.78,-122.731C192.78,-121.446 190.451,-116.439 185.792,-107.711C181.133,-98.983 174.009,-86.346 164.42,-69.8C154.835,-53.253 143.028,-33.735 129,-11.245C141.421,-17.885 161.288,-31.219 188.6,-51.246ZM206.592,-79.359C222.871,-94.138 238.667,-105.116 253.982,-112.291C269.297,-119.466 281.13,-123.054 289.482,-123.054C291.862,-122.997 294.122,-121.983 295.747,-120.243C297.667,-118.38 299.22,-116.173 300.325,-113.737C301.229,-112.04 301.801,-110.186 302.012,-108.275C302.118,-106.549 301.248,-104.903 299.763,-104.018C297.25,-102.672 294.614,-101.57 291.891,-100.725C292.64,-99.012 293.604,-96.816 294.783,-94.139C295.962,-91.462 296.872,-89.293 297.514,-87.633C298.102,-86.232 298.429,-84.734 298.478,-83.215C298.478,-80.645 295.881,-75.852 290.687,-68.837C285.493,-61.822 281.852,-56.655 279.763,-53.337C277.577,-49.65 276.489,-45.413 276.63,-41.128C276.63,-33.203 280.271,-29.24 287.554,-29.24C295.051,-29.24 306.778,-36.255 322.735,-50.284L322.735,-40.484C295.64,-10.389 276.255,4.659 264.582,4.659C260.405,4.659 257.433,3.292 255.666,0.559C253.899,-2.174 253.015,-6.217 253.015,-11.57C253.015,-20.031 256.067,-32.293 262.172,-48.358C246.536,-31.009 234.916,-18.666 227.312,-11.329C219.708,-3.992 213.441,-0.326 208.512,-0.329C206.156,-0.329 203.211,-2.362 199.677,-6.429C195.733,-11.178 192.561,-16.517 190.277,-22.252C187.566,-28.627 186.171,-35.485 186.177,-42.413C186.082,-46.663 186.569,-50.906 187.623,-55.024C188.807,-58.81 190.717,-62.33 193.246,-65.386C197.374,-70.339 201.832,-75.006 206.589,-79.358L206.592,-79.359ZM283.541,-97.03C255.696,-84.285 235.856,-73.469 224.022,-64.58C212.188,-55.691 206.271,-46.535 206.271,-37.11C206.158,-34.196 206.765,-31.299 208.038,-28.676C209.216,-26.481 210.822,-25.383 212.857,-25.383C214.035,-25.383 216.123,-26.133 219.122,-27.632C230.726,-34.573 241.14,-43.332 249.966,-53.576C259.281,-64.231 270.472,-78.716 283.538,-97.029L283.541,-97.03ZM394.7,-28.595C409.479,-41.662 422.17,-53.041 432.773,-62.732C443.376,-72.423 451.702,-80.054 457.753,-85.624C463.804,-91.193 469.132,-95.906 473.737,-99.761C478.342,-103.616 481.287,-105.544 482.572,-105.544C485.035,-105.651 487.391,-103.108 489.64,-97.913C491.889,-92.718 493.013,-88.568 493.014,-85.463C493.014,-83.428 489.614,-78.636 482.814,-71.085C476.014,-63.534 470.928,-57.51 467.556,-53.013C464.351,-48.992 462.571,-44.018 462.496,-38.876C462.391,-36.237 463.449,-33.681 465.388,-31.888C467.259,-30.143 469.738,-29.192 472.296,-29.237C475.402,-29.237 479.124,-30.843 483.461,-34.056C487.798,-37.269 494.626,-42.998 503.943,-51.245L503.943,-39.84C494.625,-31.058 486.164,-23.481 478.56,-17.109C472.388,-11.758 465.748,-6.972 458.72,-2.809C453.097,0.35 448.412,1.93 444.664,1.93C441.458,1.981 438.391,0.595 436.31,-1.845C434.033,-4.435 432.826,-7.798 432.936,-11.245C432.959,-15.021 433.611,-18.767 434.864,-22.329C436.518,-26.912 438.505,-31.368 440.808,-35.662C443.485,-40.803 447.019,-46.987 451.408,-54.216C455.797,-61.445 459.813,-68.058 463.456,-74.056C452.532,-65.167 442.84,-56.601 434.379,-48.356C425.918,-40.111 419.012,-32.908 413.66,-26.747C408.305,-20.589 404.075,-15.743 400.969,-12.209C394.969,-5.569 389.4,-2.249 384.262,-2.249C378.693,-2.249 375.908,-6.212 375.908,-14.137C375.908,-17.35 377.996,-23.106 382.173,-31.406C386.35,-39.706 392.292,-50.282 400,-63.133C400.735,-64.337 401.072,-65.743 400.964,-67.149C400.964,-69.291 399.893,-70.362 397.751,-70.362C395.395,-70.362 391.995,-68.14 387.551,-63.695C383.107,-59.25 374.514,-49.96 361.771,-35.824C357.485,-30.894 353.489,-25.718 349.803,-20.324C346.839,-15.904 343.649,-11.641 340.245,-7.55C338.317,-5.408 336.389,-4.337 334.462,-4.337C330.607,-4.337 327.019,-7.764 323.699,-14.618C320.379,-21.472 318.719,-29.451 318.719,-38.554C318.573,-44.453 319.696,-50.316 322.012,-55.743C324.996,-61.967 328.404,-67.978 332.212,-73.735C339.388,-84.124 345.251,-91.54 349.8,-95.985C354.349,-100.43 359.142,-102.652 364.178,-102.652C366.919,-102.741 369.635,-102.103 372.05,-100.805C374,-99.876 375.252,-97.905 375.263,-95.745C375.263,-93.496 373.308,-89.801 369.399,-84.661C364.935,-78.924 359.961,-73.603 354.539,-68.761C351.046,-65.306 347.972,-61.45 345.382,-57.275C342.491,-52.724 341.045,-49.43 341.045,-47.395C341.045,-44.504 342.17,-43.058 344.419,-43.058C346.24,-43.058 350.845,-46.806 358.234,-54.303C365.623,-61.8 373.736,-69.966 382.572,-78.803C390.297,-86.643 398.507,-93.99 407.154,-100.8C414.704,-106.637 421.104,-109.555 426.354,-109.555C429.415,-109.623 432.345,-108.291 434.306,-105.94C436.42,-103.46 437.537,-100.281 437.439,-97.024C437.439,-94.668 435.833,-90.411 432.62,-84.253C428.365,-76.392 423.673,-68.776 418.564,-61.441C412.403,-52.395 404.448,-41.446 394.7,-28.595ZM528.521,-44.82L528.521,-40.8C528.521,-34.481 530.074,-29.555 533.18,-26.021C536.241,-22.507 540.732,-20.558 545.389,-20.721C551.022,-20.806 556.575,-22.065 561.694,-24.416C567.63,-27.062 573.259,-30.348 578.481,-34.216C584.05,-38.283 590.85,-43.745 598.881,-50.602L598.881,-40.802C586.78,-26.238 575.429,-15.074 564.826,-7.309C554.223,0.456 543.46,4.338 532.537,4.337C523.004,4.337 515.453,0.642 509.886,-6.747C504.319,-14.136 501.534,-24.257 501.532,-37.109C501.396,-47.826 504.114,-58.388 509.404,-67.709C514.652,-76.866 523.219,-86.532 535.104,-96.709C542.378,-103.113 550.55,-108.417 559.361,-112.452C567.393,-115.985 574.568,-117.752 580.887,-117.752C585.92,-117.752 589.91,-116.601 592.855,-114.298C595.8,-111.995 597.273,-108.541 597.273,-103.936C597.273,-97.189 594.756,-90.468 589.723,-83.775C584.69,-77.082 577.006,-70.442 566.671,-63.855C556.338,-57.27 543.621,-50.925 528.521,-44.82ZM530.127,-55.262C539.051,-58.604 547.398,-63.319 554.866,-69.238C561.72,-74.807 566.78,-80.135 570.047,-85.222C573.314,-90.309 574.947,-94.03 574.947,-96.387C574.947,-98.85 573.822,-100.082 571.573,-100.082C569.645,-100.082 566.512,-98.85 562.173,-96.387C557.455,-93.647 553.039,-90.416 549,-86.748C544.421,-82.629 540.398,-77.93 537.032,-72.772C533.526,-67.485 531.173,-61.519 530.127,-55.262ZM598.24,-46.1L598.24,-49.96C625.871,-79.093 644.88,-99.495 655.269,-111.166C657.625,-124.339 663.301,-130.925 672.297,-130.925C674.823,-130.854 677.299,-130.195 679.526,-129L680.49,-125.948C679.998,-124.171 679.781,-122.329 679.847,-120.486C679.847,-118.451 680.623,-114.676 682.176,-109.161C683.729,-103.646 684.934,-99.012 685.791,-95.261C686.692,-91.092 687.123,-86.835 687.076,-82.57C687.079,-75.513 685.428,-68.552 682.257,-62.248C678.688,-55.29 673.962,-48.988 668.281,-43.613C661.027,-36.775 653.117,-30.668 644.666,-25.38C647.689,-24.821 650.75,-24.498 653.823,-24.416C658.737,-24.533 663.575,-25.654 668.04,-27.709C673.517,-30.124 678.738,-33.084 683.623,-36.544C688.924,-40.239 695.109,-45.031 702.177,-50.922L702.177,-40.159C688.469,-26.774 676.207,-16.627 665.39,-9.719C654.573,-2.811 645.256,0.643 637.438,0.643C627.371,0.643 618.054,-3.641 609.486,-12.209C604.453,-17.35 601.319,-22.276 600.086,-26.988C598.853,-31.7 598.237,-38.071 598.24,-46.1ZM658.16,-70.679L655.268,-94.133C648.628,-86.636 634.438,-72.232 612.697,-50.92C619.123,-49.528 623.514,-47.654 625.87,-45.297C628.226,-42.94 631.546,-38.389 635.83,-31.642C643.113,-34.642 648.708,-38.738 652.617,-43.931C656.526,-49.124 658.48,-56.219 658.481,-65.216C658.481,-66.287 658.454,-67.251 658.401,-68.108C658.348,-68.965 658.268,-69.824 658.161,-70.684L658.16,-70.679Z" style="fill:rgb(0, 154, 80);fill-rule:nonzero;"/>
            </g>
        </g>
        <g transform="matrix(1,0,0,1,-1735.67,-19.644)">
            <g transform="matrix(1,0,0,1,2048,204)">
                <path d="M470.167,464.9C469.256,462.98 468.145,461.161 466.852,459.473C463.816,455.403 460.016,451.963 455.666,449.344C455.891,449.073 456.132,448.786 456.389,448.482L456.518,448.329C460.956,443.264 464.883,437.774 468.243,431.939C470.345,428.193 472.032,424.229 473.275,420.117C474.603,415.712 475.231,411.126 475.135,406.526C474.964,401.139 473.938,395.813 472.096,390.748C470.366,385.956 467.951,381.439 464.926,377.339C462.147,373.528 458.809,370.157 455.026,367.339C451.673,364.796 447.865,362.916 443.807,361.8L443.789,361.8L443.789,304.84C443.832,301.106 442.908,297.424 441.108,294.152C439.564,291.531 437.726,289.096 435.63,286.892C432.919,283.842 430.578,281.208 430.578,277.84L430.578,276.5C430.598,274.703 431.321,272.983 432.592,271.711C434.05,270.261 435.951,269.338 437.992,269.09L485.992,262.33C487.552,262.099 489.125,261.976 490.702,261.964C493.831,261.964 496.221,262.564 497.808,263.755C499.436,265.028 500.333,267.028 500.202,269.09L500.202,398.54C500.202,413.152 497.502,426.371 492.177,437.83C487.29,448.427 479.932,457.698 470.721,464.863L470.167,464.9ZM599.941,422.06C592.55,422.161 585.206,420.864 578.296,418.237C571.984,415.778 566.322,411.898 561.75,406.9C556.943,401.505 553.339,395.147 551.18,388.251C548.593,379.913 547.338,371.219 547.462,362.49L547.462,286.17L535.222,286.17C531.158,286.165 527.816,282.823 527.812,278.759L527.812,271.619C527.893,268.84 530.046,266.528 532.812,266.249C544.404,265.013 555.628,261.452 565.812,255.779C566.273,255.545 566.721,255.285 567.152,254.999C572.408,251.892 577.334,248.256 581.852,244.149C587.696,238.938 592.714,232.869 596.732,226.149C597.421,224.978 598.683,224.257 600.041,224.257C600.816,224.257 601.573,224.491 602.212,224.929C604.377,226.503 605.611,229.065 605.493,231.739L605.493,264.259L638.653,264.259C642.717,264.264 646.059,267.606 646.063,271.67L646.063,278.749C646.059,282.813 642.717,286.156 638.653,286.16L605.493,286.16L605.493,363.44C605.493,368.667 606.954,373.094 609.719,376.24C612.305,379.193 616.058,380.871 619.983,380.829C625.683,380.829 630.262,379.591 633.99,377.045C636.964,374.892 639.435,372.12 641.233,368.919C642.738,366.821 645.134,365.535 647.714,365.44C649.258,365.408 650.752,366 651.855,367.081C652.908,368.179 653.467,369.661 653.403,371.181C653.401,374.301 653.114,377.413 652.546,380.481C651.971,383.586 651.114,386.632 649.986,389.581C647.691,395.629 644.244,401.175 639.836,405.909C635.142,410.94 629.439,414.924 623.1,417.6C615.761,420.635 607.882,422.152 599.941,422.06ZM235.831,422.049C231.835,422.064 227.844,421.746 223.9,421.1C220.374,420.516 216.913,419.592 213.565,418.343C207.349,415.997 201.661,412.439 196.832,407.876L196.832,410.776C196.832,413.866 196.193,415.925 194.822,417.256C193.494,418.545 191.473,419.146 188.462,419.146L139.842,418.826C137.911,418.921 136.004,418.352 134.442,417.213C133.108,416.106 132.363,414.438 132.428,412.706L132.428,411.416C132.428,407.496 134.838,404.587 137.628,401.216C141.228,396.872 145.308,391.948 145.308,383.416L145.308,244.039C135.961,245.985 126.435,246.944 116.888,246.9C111.42,246.906 105.958,246.556 100.535,245.853C95.279,245.167 90.078,244.117 84.967,242.713C79.922,241.32 74.982,239.571 70.184,237.479C65.352,235.366 60.674,232.917 56.184,230.151C47.391,224.782 39.316,218.316 32.154,210.909C25.208,203.659 19.265,195.51 14.484,186.681C4.914,169.216 -0.07,149.605 0,129.69C-0.021,121.083 0.749,112.493 2.3,104.027C3.794,95.947 6.1,88.038 9.181,80.42C12.072,73.226 15.658,66.331 19.889,59.833C23.837,53.799 28.454,48.23 33.652,43.233C43.741,33.539 55.532,25.789 68.432,20.373C81.18,14.956 94.891,12.163 108.742,12.163L108.842,12.163C115.337,12.15 121.826,12.513 128.279,13.25C134.262,13.937 140.192,15.027 146.028,16.511C151.512,17.911 156.881,19.728 162.089,21.945C167.082,24.079 171.89,26.624 176.463,29.553C180.685,32.229 184.648,35.294 188.3,38.707C191.511,41.715 194.347,45.101 196.745,48.79C198.944,52.201 200.646,55.909 201.8,59.8C202.925,63.677 203.485,67.695 203.465,71.732C203.516,75.376 202.917,78.999 201.695,82.432C199.369,88.703 194.438,93.67 188.183,96.04C184.835,97.258 181.293,97.858 177.731,97.81L177.324,97.81C169.977,97.81 162.804,95.562 156.772,91.368C150.572,87.1 145.13,81.823 140.672,75.758C136.187,69.658 131.814,63.428 127.672,57.238C123.653,51.187 118.646,45.853 112.862,41.458C103.126,33.882 89.725,32.889 78.979,38.948C74.106,41.897 70.001,45.959 67,50.8C63.456,56.351 60.848,62.447 59.278,68.843C57.488,76.217 56.613,83.783 56.671,91.37C56.658,99.052 57.108,106.727 58.02,114.355C58.884,121.536 60.235,128.65 62.066,135.648C63.825,142.34 66.079,148.891 68.81,155.248C71.486,161.455 74.643,167.443 78.251,173.158C81.563,178.467 85.349,183.465 89.564,188.09C93.244,192.124 97.393,195.705 101.922,198.756C106.058,201.522 110.571,203.677 115.322,205.156C120.005,206.581 124.875,207.3 129.77,207.289C137.023,207.289 143.197,206.206 148.12,204.069L148.12,161.89C148.091,159.005 147.316,156.177 145.87,153.68C144.096,150.677 141.812,148.007 139.12,145.79C136.659,143.757 134.398,141.492 132.37,139.027C130.877,137.104 130.12,135.48 130.12,134.2L130.12,132.91C130.08,131.047 130.988,129.286 132.53,128.24C134.179,127.08 136.146,126.46 138.162,126.463C138.285,126.463 138.408,126.463 138.53,126.47L210.34,126.79C212.902,126.79 214.85,127.332 216.13,128.4C217.479,129.628 218.191,131.411 218.06,133.23L218.06,134.521C218.06,137.089 215.46,140.988 210.34,146.11C207.981,148.395 206.022,151.06 204.548,153.995C203.292,156.553 202.63,159.361 202.61,162.21L202.61,172.33C202.798,175.595 202.91,179.547 202.95,184.411L202.95,270.7C207.326,267.396 212.281,264.939 217.56,263.455C223.495,261.792 229.636,260.979 235.8,261.04L235.885,261.04C245.168,261.051 254.38,262.675 263.107,265.84C267.548,267.45 271.833,269.463 275.907,271.855C280.041,274.283 283.926,277.112 287.507,280.3C295.042,287.018 301.038,295.285 305.082,304.535C309.681,315.315 311.979,326.936 311.83,338.655C311.925,350.443 309.801,362.144 305.57,373.147C301.777,382.931 296.076,391.864 288.8,399.426C285.335,403.011 281.523,406.243 277.42,409.074C265.197,417.524 250.685,422.051 235.826,422.049L235.831,422.049ZM222.311,276.82C216.691,276.743 211.403,279.54 208.304,284.229C206.476,286.938 205.146,289.952 204.379,293.129C203.413,297.067 202.946,301.11 202.99,305.164L202.99,367.634C203.049,377.19 206.027,386.503 211.525,394.319C216.958,401.919 223.94,406.274 230.68,406.274C234.433,406.353 238.142,405.447 241.437,403.648C244.621,401.777 247.258,399.101 249.082,395.89C253.115,389.103 255.161,378.947 255.161,365.705C255.133,356.157 254.523,346.619 253.334,337.145C252.187,327.365 250.253,317.693 247.552,308.223C244.725,298.642 241.297,291.106 237.362,285.823C232.916,279.847 227.852,276.82 222.311,276.82ZM704.779,407.886C699.684,404.386 695.054,400.252 691,395.586C686.905,390.857 683.424,385.63 680.637,380.029C677.73,374.161 675.539,367.965 674.112,361.574C672.582,354.681 671.822,347.64 671.844,340.579C671.755,329.381 673.936,318.28 678.254,307.947C682.251,298.505 688.154,289.988 695.593,282.932C699.241,279.474 703.219,276.382 707.47,273.7C711.759,270.997 716.296,268.707 721.018,266.861C725.83,264.983 730.805,263.552 735.88,262.587C741.096,261.598 746.391,261.081 751.7,261.043L752.666,261.043C761.379,260.966 770.061,262.092 778.466,264.389C785.622,266.323 792.371,269.53 798.39,273.857C803.743,277.72 808.136,282.762 811.229,288.594C814.276,294.514 815.837,301.089 815.777,307.747C815.77,313.31 814.47,318.795 811.982,323.77C809.358,328.957 805.754,333.585 801.368,337.4C796.5,341.651 791.005,345.125 785.077,347.7C778.431,350.61 771.433,352.64 764.261,353.738C755.184,355.287 745.992,356.067 736.784,356.069C735.197,356.069 733.584,356.045 732,355.999C734.007,359.898 736.469,363.546 739.335,366.866C742.058,370.013 745.196,372.775 748.663,375.076C752.101,377.343 755.854,379.093 759.802,380.267C763.948,381.483 768.249,382.093 772.57,382.078L773.318,382.078C762.986,394.617 758.861,402.871 758.818,402.953C755.622,398.688 751.498,395.204 746.758,392.766C744.6,391.675 742.321,390.839 739.969,390.277C732.059,388.39 723.711,389.798 716.858,394.177C714.352,395.773 712.082,397.713 710.116,399.941C708.016,402.326 706.253,404.989 704.877,407.853L704.777,407.887L704.779,407.886ZM744.891,278.11C741.704,278.096 738.581,279.016 735.91,280.756C733.069,282.665 730.704,285.202 729,288.171C726.939,291.718 725.443,295.564 724.564,299.571C723.488,304.362 722.963,309.26 723,314.17C722.951,322.524 723.924,330.853 725.9,338.97C727.475,339.06 729.079,339.107 730.666,339.107C734.457,339.106 738.244,338.846 742,338.33C749.365,336.989 754.684,333.71 758.259,328.305C760.262,325.146 761.684,321.655 762.459,317.996C763.472,313.249 763.951,308.403 763.887,303.55C763.731,296.639 761.73,290.234 758.253,285.516C754.738,280.74 749.991,278.11 744.891,278.11ZM360.416,397.754C351.771,387.112 347.201,373.576 347.201,358.611L347.201,304.84C347.245,301.114 346.346,297.437 344.587,294.152C343.087,291.538 341.295,289.102 339.246,286.892C336.603,283.842 334.321,281.208 334.321,277.84L334.321,276.5C334.341,274.703 335.065,272.983 336.335,271.711C337.793,270.261 339.694,269.338 341.735,269.09L389.735,262.65C391.409,262.411 393.097,262.284 394.788,262.272C398.008,262.272 400.501,262.831 402.2,263.934C403.949,265.047 404.969,267.02 404.865,269.09L403.865,364.41C403.844,365.865 403.852,367.291 403.887,368.65C403.395,368.885 398.861,371.073 391.24,375.772C380.543,382.438 370.27,389.761 360.48,397.7L360.417,397.751L360.416,397.754ZM675.628,246.9L675.591,246.9C670.539,246.912 665.496,246.464 660.525,245.562C650.964,243.825 641.849,240.186 633.72,234.862C629.527,232.107 625.598,228.972 621.981,225.495C618.289,221.966 615.005,218.034 612.191,213.773C609.361,209.458 607.013,204.846 605.191,200.018C603.275,194.905 601.865,189.617 600.981,184.229C600.022,178.337 599.547,172.376 599.561,166.406C599.544,160.784 600.016,155.171 600.97,149.631C601.876,144.427 603.293,139.326 605.2,134.4C607.068,129.61 609.428,125.027 612.244,120.725C615.114,116.363 618.416,112.3 622.1,108.6C625.723,104.932 629.677,101.608 633.913,98.669C637.961,95.873 642.284,93.496 646.813,91.575C651.317,89.679 656.004,88.252 660.8,87.318C665.767,86.363 670.813,85.888 675.871,85.9C681.981,85.849 688.071,86.605 693.983,88.15C699.333,89.575 704.417,91.854 709.04,94.9L709.04,52.09C709.112,47.995 707.612,44.025 704.851,41C702.251,38.085 699.397,35.408 696.321,33C693.454,30.717 692.001,28.254 692.001,25.679L692.001,24.679C691.95,22.791 692.611,20.95 693.853,19.527C695.374,17.964 697.297,16.851 699.41,16.309L749.61,1.209C751.734,0.478 753.955,0.07 756.2,0C758.333,-0.154 760.424,0.669 761.879,2.235C763.136,3.718 763.774,5.974 763.779,8.94L763.779,208.58C763.794,211.329 764.341,214.049 765.389,216.59C766.594,219.46 768.222,222.133 770.219,224.52C774.492,229.756 776.659,233.709 776.659,236.269L776.659,237.56C776.783,239.293 776.098,240.989 774.806,242.15C773.184,243.283 771.221,243.823 769.248,243.68L723.248,243.68C720.468,243.68 718.353,243.003 716.963,241.667C715.573,240.331 714.863,238.3 714.863,235.629L714.863,232.729C709.862,237.42 703.953,241.037 697.5,243.357C690.469,245.794 683.069,246.993 675.628,246.9ZM680.1,101.68C676.438,101.61 672.817,102.461 669.57,104.155C666.397,105.93 663.73,108.486 661.82,111.58C659.491,115.402 657.811,119.584 656.85,123.955C655.563,129.646 654.83,135.448 654.66,141.28C654.236,151.333 655.16,163.142 657.401,176.38C659.515,189.257 663.42,201.774 669,213.57C671.708,219.29 674.715,223.67 677.938,226.577C680.764,229.319 684.497,230.935 688.43,231.12C688.675,231.129 688.922,231.134 689.165,231.134C691.798,231.155 694.398,230.547 696.748,229.361C699.211,228.055 701.369,226.241 703.08,224.04C705.122,221.457 706.644,218.502 707.56,215.34C708.604,211.667 709.116,207.863 709.08,204.045L709.08,141.93C709.175,131.937 706.069,122.172 700.219,114.07C697.714,110.377 694.5,107.219 690.764,104.778C687.571,102.765 683.875,101.691 680.1,101.68ZM502.222,246.9L502,246.9C495.984,246.915 489.976,246.434 484.039,245.463C478.408,244.533 472.875,243.09 467.507,241.151C462.256,239.241 457.2,236.835 452.407,233.964C447.547,231.039 442.969,227.67 438.731,223.9C434.549,220.212 430.75,216.112 427.391,211.662C420.96,203.122 416.531,193.244 414.431,182.762C412.275,171.767 412.271,160.458 414.421,149.462C415.469,144.257 417.088,139.185 419.251,134.336C421.42,129.513 424.12,124.947 427.301,120.722C430.637,116.316 434.413,112.262 438.571,108.622C442.762,104.918 447.274,101.596 452.055,98.694C456.719,95.875 461.638,93.5 466.746,91.6C471.904,89.695 477.226,88.27 482.646,87.343C488.298,86.386 494.02,85.91 499.752,85.921C505.671,85.907 511.582,86.385 517.422,87.35C522.975,88.277 528.431,89.711 533.722,91.636C538.915,93.538 543.915,95.93 548.655,98.78C553.473,101.691 558.014,105.038 562.22,108.78C566.382,112.452 570.158,116.54 573.49,120.98C576.674,125.245 579.374,129.851 581.54,134.712C583.704,139.609 585.324,144.729 586.37,149.979C588.503,161.02 588.517,172.367 586.41,183.413C585.39,188.61 583.811,193.68 581.7,198.537C579.59,203.35 576.958,207.916 573.85,212.153C570.606,216.551 566.924,220.608 562.86,224.262C558.78,227.96 554.368,231.274 549.679,234.162C545.084,236.98 540.228,239.35 535.179,241.237C530.049,243.142 524.753,244.563 519.359,245.482C513.697,246.438 507.964,246.912 502.222,246.9ZM490.751,101.68C487.36,101.588 484.011,102.455 481.091,104.18C478.27,106.011 476.034,108.615 474.651,111.68C472.849,115.674 471.629,119.906 471.028,124.247C470.167,130.107 469.763,136.025 469.82,141.947C469.95,150.356 470.803,158.738 472.371,167C474.138,176.848 476.502,186.579 479.45,196.139C482.038,205.092 486.24,213.497 491.85,220.939C494.084,223.962 496.854,226.55 500.022,228.574C502.645,230.21 505.669,231.091 508.76,231.119L508.77,231.119C511.95,231.185 515.083,230.324 517.783,228.643C520.543,226.776 522.764,224.214 524.22,221.216C526.127,217.309 527.429,213.136 528.083,208.838C528.999,203.108 529.43,197.311 529.371,191.509C529.371,181.895 528.025,170.309 525.371,157.059C522.74,143.905 518.181,131.211 511.841,119.389C508.694,113.513 505.326,109.045 501.83,106.107C500.217,104.721 498.395,103.6 496.43,102.786C494.63,102.058 492.707,101.683 490.766,101.679L490.751,101.68ZM315.781,246.9L315.56,246.9C309.541,246.915 303.532,246.434 297.592,245.463C291.961,244.533 286.426,243.09 281.058,241.151C275.807,239.242 270.751,236.835 265.958,233.964C261.101,231.039 256.525,227.67 252.291,223.9C248.112,220.212 244.316,216.112 240.959,211.662C234.531,203.12 230.102,193.243 227.999,182.762C225.835,171.768 225.829,160.458 227.981,149.462C229.028,144.258 230.647,139.185 232.809,134.336C234.977,129.513 237.676,124.947 240.856,120.722C244.19,116.316 247.965,112.262 252.122,108.622C256.31,104.918 260.821,101.595 265.6,98.692C270.265,95.873 275.184,93.499 280.293,91.6C285.451,89.695 290.773,88.27 296.193,87.343C301.848,86.386 307.573,85.91 313.308,85.921C319.226,85.907 325.135,86.385 330.974,87.35C336.527,88.276 341.983,89.711 347.274,91.636C352.467,93.538 357.466,95.93 362.205,98.78C367.023,101.691 371.564,105.038 375.769,108.78C379.931,112.452 383.707,116.54 387.039,120.98C390.223,125.245 392.923,129.851 395.089,134.712C397.253,139.609 398.873,144.729 399.919,149.979C402.052,161.02 402.065,172.367 399.959,183.413C398.94,188.609 397.361,193.68 395.251,198.537C393.142,203.35 390.511,207.916 387.404,212.153C384.162,216.55 380.482,220.607 376.42,224.26C372.342,227.958 367.93,231.272 363.243,234.16C358.648,236.979 353.792,239.348 348.743,241.235C343.613,243.14 338.316,244.561 332.922,245.48C327.259,246.437 321.525,246.912 315.781,246.9ZM304.321,101.68C300.929,101.588 297.578,102.454 294.656,104.18C291.836,106.01 289.602,108.615 288.221,111.68C286.423,115.675 285.205,119.907 284.604,124.247C283.743,130.107 283.338,136.025 283.392,141.947C283.516,150.356 284.369,158.738 285.941,167C287.69,176.863 290.047,186.608 293,196.18C295.58,205.136 299.783,213.543 305.4,220.98C307.639,223.993 310.412,226.571 313.58,228.585C316.206,230.215 319.23,231.092 322.32,231.12C325.502,231.186 328.635,230.325 331.337,228.644C334.099,226.777 336.321,224.215 337.778,221.217C339.685,217.31 340.988,213.137 341.642,208.839C342.559,203.109 342.989,197.312 342.93,191.51C342.93,181.893 341.584,170.303 338.93,157.06C336.306,143.905 331.75,131.211 325.41,119.39C322.26,113.514 318.89,109.045 315.394,106.108C313.781,104.722 311.959,103.601 309.994,102.787C308.195,102.059 306.273,101.684 304.333,101.68L304.321,101.68Z" style="fill:rgb(0, 154, 80);fill-rule:nonzero;"/>
            </g>
        </g>
    </g>
</svg>
