<?xml version="1.0" standalone="no"?>
<!DOCTYPE svg PUBLIC "-//W3C//DTD SVG 20010904//EN"
 "http://www.w3.org/TR/2001/REC-SVG-20010904/DTD/svg10.dtd">
<svg version="1.0" xmlns="http://www.w3.org/2000/svg"
 width="256.000000pt" height="256.000000pt" viewBox="0 0 256.000000 256.000000"
 preserveAspectRatio="xMidYMid meet">
<metadata>
Created by potrace 1.11, written by Peter Selinger 2001-2013
</metadata>
<g transform="translate(0.000000,256.000000) scale(0.100000,-0.100000)"
fill="#000000" stroke="none">
<path d="M763 1867 c-4 -7 -7 -95 -8 -197 l0 -185 -118 -1 c-71 -1 -127 -6
-141 -13 -19 -11 -64 -71 -58 -78 1 -2 2 -48 2 -102 l0 -100 -91 -108 c-50
-59 -113 -133 -139 -163 -152 -177 -200 -235 -200 -241 0 -12 570 -8 571 5 1
6 2 34 3 61 l1 50 199 0 199 0 13 -43 c15 -54 38 -80 88 -103 97 -43 214 19
229 123 4 21 9 23 72 23 l69 0 9 -35 c24 -94 95 -135 213 -121 6 0 29 17 51
36 28 23 44 48 53 79 l12 45 56 -2 c54 -2 56 -3 63 -33 8 -43 44 -91 82 -111
94 -49 215 6 236 108 l7 34 99 2 c55 1 103 2 107 2 3 1 6 243 6 539 l0 539
-279 0 c-199 0 -279 -3 -280 -11 -1 -6 -2 -94 -3 -196 l-1 -185 -120 0 -119 0
-3 77 c-1 54 -8 89 -23 118 -38 74 -131 114 -208 89 -93 -30 -133 -94 -134
-212 l-1 -75 -123 1 -124 0 0 197 0 196 -130 1 c-92 2 -132 -1 -137 -10z"/>
</g>
</svg>
